# xmcd
#
# Track frame offsets: 
#        150
#        56850
#        100710
#        145975
#        240037
#        273597
#
# Disc length: 4406 seconds
#
# Revision: 1
# Processed by: cddbd v1.5.2PL0 Copyright (c) Steve Scherf et al.
# Submitted via: ExactAudioCopy v0.95b4
#
DISCID=4d113406
DTITLE=Enrico Rava - European Trumpet Summit (Rava, Heberer, Hoogendij
DTITLE=k, Botschinsky)
DYEAR=1995
DGENRE=Jazz
TTITLE0=Interaction
TTITLE1=Pulque
TTITLE2=Anna Sophia
TTITLE3=Brother Joe
TTITLE4=Cobra
TTITLE5=Blaublusen
EXTD=YEAR: 1995
EXTT0=
EXTT1=
EXTT2=
EXTT3=
EXTT4=
EXTT5=
PLAYORDER=
